<svg id="b" xmlns="http://www.w3.org/2000/svg" width="194.997" height="287.39" viewBox="0 0 194.997 287.39"><defs><style>.g{fill:#211715;}.g,.h,.i{stroke-width:0px;}.h{fill:#fff;}.i{fill:#fcdc4a;}</style></defs><g id="c"><g id="d"><path class="h" d="M6.24,28.692c21.121-.001,142.798-.01,147.642-.01-.003,34.283-.003,175.698-.003,213.391-5.281-.006-147.688.004-150.7.004,0,0-.15,0-.439.007,0-37.667,0-179.08.003-213.391h.436c.233,0,1.296,0,3.062,0Z"></path><path class="h" d="M138.35,280.439c-3.333-2.149-6.674-5.23-9.904-9.584-2.339-3.152-6.716-9.638-11.725-19.789-1.531-3.104-2.054-6.325.297-8.865,2.581-2.789,6.637-3.244,8.489-2.574,0,0,.978.354,2.627.95-3.526-10.804-9.336-28.58-13.006-39.872-1.26-3.878-.626-9.332,4.735-11.074,5.202-1.691,9.448,1.127,10.933,5.698,2.347,7.222,7.811,24.033,10.205,31.399.199-.763.34-1.305.34-1.305.806-3.093,3.656-6.171,7.876-6.166,3.296.005,6.172,2.04,6.583,5.112.129-2.988,2.806-5.784,6.542-6.135s7.54,1.394,8.232,4.746c.618-2.707,2.596-3.642,5.123-4.266,3.32-.821,7.794,2.939,8.8,6.035,2.006,6.171,3.613,11.135,5.876,18.1,1.068,3.286,1.961,8.227,1.961,8.227,2.048,16.661-7.331,22.73-11.657,26.046-4.961,3.1-12.21,6.395-20.864,7.489-6.173.78-13.799.769-21.462-4.171Z"></path><g id="e"><path class="i" d="M153.613,28.683v-5.789c0-11.316-9.173-20.489-20.489-20.489H22.963C11.647,2.406,2.474,11.579,2.474,22.894v5.796c39.774-.002,110.707-.006,151.139-.008Z"></path><path class="i" d="M116.721,251.066c-1.531-3.104-2.054-6.325.297-8.865.044-.048.096-.083.142-.129-38.61,0-85.206.003-114.686.004v7.094c0,11.316,9.173,20.489,20.489,20.489h104.615c-2.467-3.467-6.411-9.583-10.857-18.593Z"></path></g></g><g id="f"><path class="g" d="M127.588,267.262h-25.246c-16.045,0-32.09,0-48.135,0-10.229,0-20.459,0-30.688,0-8.068,0-15.452-4.889-17.845-12.766-.787-2.592-.796-5.132-.796-7.78v-23.166c0-13.403,0-26.806,0-40.209,0-16.304,0-32.609,0-48.913V46.511c0-7.265,0-14.531,0-21.796,0-3.721.416-7.309,2.294-10.645,2.622-4.658,7.159-7.908,12.393-8.955,1.482-.297,2.976-.313,4.478-.313h31.762c16.122,0,32.245,0,48.367,0,9.54,0,19.079-.018,28.619,0,8.699.017,16.278,5.921,18.078,14.512.46,2.196.35,4.489.35,6.725,0,8.806,0,17.611,0,26.417,0,14.521,0,29.041,0,43.562,0,16.574,0,33.149,0,49.723,0,14.662,0,29.324,0,43.987v30.955c0,3.089,4.8,3.094,4.8,0V70.338c0-11.907,0-23.814,0-35.721,0-6.897.829-14.629-2.009-21.072C150.298,5.119,141.77.014,132.683.002,129.337-.003,125.99.002,122.644.002h-43.929c-14.809,0-29.618,0-44.427,0h-10.664C14.945.002,6.75,4.437,2.692,12.267-.604,18.626.078,25.842.078,32.762v127.686c0,15.332,0,30.665,0,45.997,0,10.794,0,21.588,0,32.382s-.684,13.579,2.007,19.693c3.725,8.463,12.277,13.533,21.392,13.543,3.48.004,6.96,0,10.44,0,14.943,0,29.886,0,44.828,0,14.034,0,28.067,0,42.101,0h6.742c3.089,0,3.094-4.8,0-4.8h0Z"></path><path class="g" d="M2.918,244.472c9.095,0,18.19,0,27.286,0,18.493,0,36.986-.002,55.48-.004,10.492-.001,20.983-.003,31.475-.005,3.089,0,3.094-4.801,0-4.8-19.049.004-38.098.006-57.146.008-15.706.001-31.412.002-47.119.002-3.325,0-6.65,0-9.975,0-3.089,0-3.094,4.8,0,4.8h0Z"></path><path class="g" d="M2.913,31.092c5.269,0,10.538,0,15.807-.001,11.829,0,23.657-.002,35.486-.002,14.196,0,28.392-.002,42.588-.003,12.372,0,24.744-.002,37.116-.003,6.353,0,12.715.097,19.068-.001.162-.003.325,0,.487,0,3.089,0,3.094-4.8,0-4.8-5.316,0-10.631,0-15.947.001-11.852,0-23.705.002-35.557.002-14.198,0-28.395.002-42.593.003-12.351,0-24.702.002-37.052.003-6.309,0-12.628-.099-18.937.001-.155.002-.311,0-.466,0-3.089,0-3.094,4.8,0,4.8h0Z"></path><path class="g" d="M26.077,72.679c16.803.024,33.606,0,50.409,0,3.089,0,3.094-4.8,0-4.8-16.803,0-33.606.024-50.409,0-3.089-.004-3.093,4.796,0,4.8h0Z"></path><path class="g" d="M26.077,88.045c14.169-.002,28.338-.102,42.506-.15,2.634-.009,5.268-.021,7.903-.021,3.089,0,3.094-4.8,0-4.8-14.231.002-28.462.101-42.693.15-2.572.009-5.144.021-7.716.021-3.089,0-3.094,4.8,0,4.8h0Z"></path><path class="g" d="M103.979,132.829c1.627,1.629,3.221,3.291,4.847,4.92.922.924,2.468.909,3.394,0,3.354-3.291,6.683-6.609,9.967-9.97.878-.899.963-2.51,0-3.394-.949-.871-2.457-.959-3.394,0-3.284,3.361-6.613,6.679-9.967,9.97h3.394c-1.626-1.63-3.22-3.291-4.847-4.92-.888-.889-2.518-.955-3.394,0s-.948,2.445,0,3.394h0Z"></path><path class="g" d="M103.979,80.829c1.627,1.629,3.221,3.291,4.847,4.92.922.924,2.468.909,3.394,0,3.354-3.291,6.683-6.609,9.967-9.97.878-.899.963-2.51,0-3.394-.949-.871-2.457-.959-3.394,0-3.284,3.361-6.613,6.679-9.967,9.97h3.394c-1.626-1.63-3.22-3.291-4.847-4.92-.888-.889-2.518-.955-3.394,0s-.948,2.445,0,3.394h0Z"></path><path class="g" d="M101.608,95.751c6.147.016,12.294,0,18.441-.012,2.958-.006,6.234.486,8.663-1.564,1.581-1.335,2.218-3.249,2.232-5.261.045-6.572,0-13.147,0-19.719,0-.845.027-1.695,0-2.539-.086-2.703-1.561-5.063-4.131-6.058-1.362-.527-2.816-.43-4.25-.427-1.476.003-2.951.006-4.427.008-3.304.006-6.608.012-9.912.013-1.341,0-2.682,0-4.022,0-1.494-.001-3.097-.16-4.54.304-2.711.873-4.349,3.373-4.438,6.149-.081,2.503,0,5.023,0,7.528v12.383c0,.919-.032,1.845,0,2.764.127,3.598,2.794,6.27,6.383,6.432,3.088.14,3.081-4.661,0-4.8-2.147-.097-1.583-3.119-1.583-4.569v-18.719c0-.566-.094-1.287.165-1.792.365-.71.999-.876,1.741-.883,1.347-.012,2.696.004,4.043.005,5.644,0,11.288-.012,16.932-.023,1.448-.003,3.109-.19,3.238,1.654.047.665,0,1.35,0,2.016v18.84c0,.68.132,1.521-.015,2.196-.168.774-.848,1.186-1.574,1.255-1.35.128-2.778.005-4.133.008-6.271.012-12.542.029-18.813.013-3.089-.008-3.093,4.792,0,4.8Z"></path><path class="g" d="M26.077,124.936c16.803.024,33.606,0,50.409,0,3.089,0,3.094-4.8,0-4.8-16.803,0-33.606.024-50.409,0-3.089-.004-3.093,4.796,0,4.8h0Z"></path><path class="g" d="M26.077,140.302c14.019-.002,28.039-.103,42.059-.15,2.783-.009,5.567-.021,8.35-.021,3.089,0,3.094-4.8,0-4.8-14.388.002-28.777.099-43.165.15-2.415.009-4.829.021-7.244.021-3.089,0-3.094,4.801,0,4.8h0Z"></path><path class="g" d="M101.608,148.009c6.147.016,12.294,0,18.441-.012,2.958-.006,6.234.486,8.663-1.564,1.581-1.335,2.218-3.249,2.232-5.261.045-6.572,0-13.147,0-19.719,0-.845.027-1.695,0-2.539-.086-2.703-1.561-5.063-4.131-6.058-1.362-.527-2.816-.43-4.25-.427-1.476.003-2.951.006-4.427.008-3.304.006-6.608.012-9.912.013-1.341,0-2.682,0-4.022,0-1.494-.001-3.097-.16-4.54.304-2.711.873-4.349,3.373-4.438,6.149-.081,2.503,0,5.023,0,7.528v12.383c0,.919-.032,1.845,0,2.764.127,3.598,2.794,6.27,6.383,6.432,3.088.14,3.081-4.661,0-4.8-2.147-.097-1.583-3.119-1.583-4.569v-18.719c0-.566-.094-1.287.165-1.792.365-.71.999-.876,1.741-.883,1.347-.012,2.696.004,4.043.005,5.644,0,11.288-.012,16.932-.023,1.448-.003,3.109-.19,3.238,1.654.047.665,0,1.35,0,2.016v18.84c0,.68.132,1.521-.015,2.196-.168.774-.848,1.186-1.574,1.255-1.35.128-2.778.005-4.133.008-6.271.012-12.542.029-18.813.013-3.089-.008-3.093,4.792,0,4.8Z"></path><path class="g" d="M130.943,180.032c0-2.004.014-4.008,0-6.012-.012-1.674-.461-3.215-1.553-4.511-1.505-1.785-3.587-2.237-5.814-2.233-4.203.008-8.405.017-12.608.021-2.14.002-4.28.004-6.42.002-1.994-.002-4.083-.221-5.91.739-2.518,1.322-3.413,3.844-3.413,6.515v20.464c0,2.688.484,5.268,2.976,6.849,2.216,1.406,5.07.998,7.572,1,2.135.001,4.27-.005,6.406-.015,3.088-.014,3.094-4.814,0-4.8-1.674.008-3.348.013-5.022.015-.835,0-1.67,0-2.505-.001-1.028-.001-2.4.24-3.388-.022-1.309-.347-1.239-1.583-1.239-2.66v-12.537c0-3.014-.25-6.146,0-9.152.108-1.304,1.05-1.601,2.214-1.598,1.741.004,3.482.004,5.223.004,3.879-.001,7.757-.008,11.636-.015,1.039-.002,2.079-.004,3.118-.006.834-.002,1.878-.166,2.685.024.922.216,1.234,1.012,1.243,1.859.022,2.023,0,4.048,0,6.071,0,3.089,4.8,3.094,4.8,0h0Z"></path><path class="g" d="M26.077,179.788c16.803.024,33.606,0,50.409,0,3.089,0,3.094-4.8,0-4.8-16.803,0-33.606.024-50.409,0-3.089-.004-3.093,4.796,0,4.8h0Z"></path><path class="g" d="M26.077,195.153c14.407-.002,28.815-.098,43.222-.15,2.395-.009,4.791-.021,7.187-.021,3.089,0,3.094-4.801,0-4.8-14,.002-28.001.103-42.001.15-2.803.009-5.605.021-8.408.021-3.089,0-3.094,4.8,0,4.8h0Z"></path><path class="g" d="M133.106,248.093c-4.161-12.833-8.372-25.649-12.553-38.475-1.113-3.415-2.471-6.842-3.332-10.33-.634-2.571-.185-5.791,2.712-7.125,3.169-1.46,6.59-.269,8.146,2.823.642,1.275.979,2.754,1.42,4.11l1.636,5.034c2.545,7.832,5.091,15.663,7.636,23.495.951,2.925,5.587,1.674,4.629-1.276-2.409-7.412-4.818-14.823-7.226-22.235-1.087-3.344-2.03-6.784-3.294-10.065-1.658-4.304-5.581-7.473-10.332-7.307-4.57.159-8.746,2.87-9.969,7.394-1.038,3.84.295,7.394,1.472,11.01,2.644,8.122,5.295,16.241,7.946,24.36,2.162,6.62,4.332,13.238,6.48,19.863.949,2.926,5.585,1.674,4.629-1.276h0Z"></path><path class="g" d="M143.655,226.061c.625-2.222,2.423-4.067,4.787-4.369,2.385-.305,4.643.871,5.044,3.316.191,1.162,1.566,1.88,2.633,1.719,1.229-.185,1.992-1.135,2.081-2.357.333-4.589,8.973-5.283,10.059-.751.554,2.31,4.047,2.262,4.629,0,.488-1.898,2.819-2.942,4.504-2.516,2.247.568,4.263,2.699,4.927,4.704,1.093,3.299,2.147,6.612,3.22,9.918,1.095,3.373,2.323,6.731,3.209,10.166.34,1.32.638,2.65.913,3.985.091.443.18.887.265,1.331.024.125.05.249.071.375.007.039.015.078.022.118-.052-.332-.048-.253.014.237.237,2.866.319,5.752-.245,8.587-.856,4.305-2.82,7.827-5.763,10.738-.584.578-1.195,1.128-1.824,1.657-.29.244-.583.482-.879.718-.141.112-.283.223-.425.334.512-.4-.098.073-.196.148-1.774,1.348-3.697,2.431-5.694,3.42-5.483,2.716-11.526,4.45-17.632,4.926-4.695.366-8.999-.013-13.381-1.762-5.523-2.205-10.085-6.47-13.577-11.197-3.491-4.726-6.491-9.825-9.245-15.008-.972-1.829-2.078-3.684-2.806-5.625-.534-1.424-.903-3.11-.023-4.475.787-1.22,2.145-2.002,3.519-2.383,1.14-.316,2.213-.333,3.01-.072,2.942.966,4.202-3.667,1.276-4.629-2.884-.947-6.499-.063-8.942,1.611-3.468,2.376-4.883,6.186-3.779,10.25.565,2.079,1.661,4.012,2.643,5.915.934,1.811,1.9,3.606,2.901,5.38,1.525,2.702,3.132,5.36,4.849,7.944,3.583,5.393,7.713,10.443,13.19,14.014,4.907,3.199,10.636,4.828,16.474,4.955,6.567.143,13.264-1.254,19.348-3.666,4.843-1.921,9.285-4.364,13.215-7.788,3.643-3.174,6.406-7.225,7.807-11.867,1.754-5.807,1.298-11.848-.043-17.671-.872-3.784-2.182-7.447-3.379-11.136-1.182-3.643-2.314-7.307-3.549-10.932-1.074-3.153-3.555-5.843-6.587-7.232-3.006-1.377-6.512-.969-9.198.992-1.457,1.063-2.385,2.517-2.834,4.262h4.629c-1.09-4.548-5.978-6.862-10.365-6.522-4.722.365-8.768,3.676-9.122,8.549l4.714-.638c-.737-4.488-5.345-7.207-9.672-6.84-4.51.382-8.196,3.557-9.416,7.893-.838,2.979,3.792,4.25,4.629,1.276h0Z"></path></g></g></svg>