<svg id="b" xmlns="http://www.w3.org/2000/svg" width="324.864" height="227.083" viewBox="0 0 324.864 227.083"><defs><style>.g{fill:#211715;}.g,.h,.i{stroke-width:0px;}.h{fill:#fff;}.i{fill:#fcdc4a;}</style></defs><g id="c"><g id="d"><path class="h" d="M38.306,122.853c-.014-34.678-.032-80.643-.043-109.985-.002-5.743,4.648-10.391,10.391-10.392,44.775-.013,174.516-.058,227.604-.077,5.745-.002,10.401,4.651,10.401,10.395-.003,39.362.016,103.291.032,144.02,8.222,11.554,25.861,35.87,34.487,50.599.859,1.468,1.3,3.126,1.301,4.827,0,1.503-.032,3.323-.032,5.201,0,3.979-3.237,7.208-7.216,7.208-43.176,0-267.034,0-306.699,0-3.323,0-6.018-2.692-6.018-6.015,0-9.281-.034,2.724-.034-6.381,0-1.703.444-3.377,1.305-4.847,8.719-14.89,26.43-39.971,34.536-51.352-.003-8.394-.008-19.977-.013-33.201Z"></path><path class="h" d="M52.292,15.763c.014,35.797.057,131.59.057,131.59,37.213-.014,184.202-.063,220.317-.073-.016-38.713-.043-99.075-.057-131.585,0,0-187.832.061-220.318.069Z"></path><path class="h" d="M226.398,188.157c-2.545-1.64-5.095-3.993-7.562-7.317-1.785-2.407-5.127-7.358-8.951-15.108-1.169-2.37-1.568-4.829.227-6.768,1.97-2.129,5.067-2.477,6.481-1.965,0,0,.747.27,2.006.726-2.692-8.249-7.128-21.819-9.93-30.44-.962-2.96-.478-7.124,3.615-8.454,3.972-1.291,7.213.861,8.347,4.35,1.792,5.513,5.963,18.348,7.791,23.972.152-.582.259-.996.259-.996.616-2.362,2.792-4.712,6.013-4.707,2.517.003,4.712,1.557,5.026,3.903.099-2.281,2.142-4.416,4.994-4.684s5.757,1.064,6.285,3.624c.472-2.066,1.982-2.78,3.911-3.257,2.535-.627,5.95,2.243,6.719,4.607,1.531,4.711,2.758,8.501,4.486,13.818.815,2.509,1.497,6.281,1.497,6.281,1.564,12.72-5.597,17.353-8.899,19.885-3.787,2.366-9.322,4.883-15.929,5.717-4.713.595-10.535.587-16.385-3.184Z"></path><g id="e"><path class="i" d="M218.837,180.84c-1.785-2.407-5.127-7.358-8.951-15.108-.814-1.649-1.234-3.338-.822-4.868-54.387,0-122.887-.002-153.735-.005-2.051,0-3.968.996-5.144,2.676-3.921,5.602-8.139,11.795-11.886,17.829-1.249,2.011.215,4.61,2.582,4.61h5.986s176.644,0,176.644,0c-1.576-1.378-3.141-3.067-4.674-5.133Z"></path><path class="i" d="M286.652,181.339c-3.739-6.019-7.945-12.194-11.856-17.78-1.183-1.689-3.095-2.694-5.157-2.694h-3.111c.62,2.308,1.085,4.875,1.085,4.875,1.564,12.72-5.597,17.353-8.899,19.885-.185.116-.394.232-.587.349h25.962c2.379,0,3.819-2.613,2.564-4.634Z"></path></g></g><g id="f"><path class="g" d="M266.529,163.264c1.391,0,3.002-.25,4.342.2,1.404.471,2.103,1.652,2.905,2.806,2.078,2.989,4.131,5.995,6.14,9.031.973,1.47,1.936,2.946,2.885,4.431.428.669.853,1.339,1.275,2.012.196.313.563.719.657,1.082-.055-.215-.052.437-.009.162-.094.603-.443.587-1.184.587h-25.41c-3.089,0-3.094,4.8,0,4.8h18.44c2.475,0,4.967.084,7.441,0,2.59-.088,4.903-1.758,5.392-4.391.344-1.851-.346-3.332-1.309-4.864-1.062-1.689-2.143-3.367-3.238-5.035-2.472-3.766-5.014-7.486-7.592-11.18-1.216-1.742-2.58-3.091-4.589-3.874-1.947-.759-4.096-.566-6.145-.566-3.089,0-3.094,4.8,0,4.8h0Z"></path><path class="g" d="M209.049,158.464c-21.87,0-43.741,0-65.611,0-20.108,0-40.215-.001-60.323-.004-7.674,0-15.348-.002-23.021-.004-1.587,0-3.179-.042-4.765-.001-2.796.071-5.303,1.32-6.984,3.562-3.684,4.912-7.033,10.142-10.337,15.314-1.469,2.299-3.296,4.62-2.216,7.48.837,2.217,2.848,3.488,5.174,3.565,1.968.065,3.949,0,5.919,0h55.641c12.803,0,25.606,0,38.41,0h82.574c3.089,0,3.094-4.8,0-4.8H43.749c-.918,0-2.334.231-3.147-.051-.223-.077-.418-.357-.357-.734.109-.676,1.385-2.22,1.906-3.037,1.644-2.573,3.328-5.121,5.037-7.65,1.662-2.46,3.234-5.12,5.121-7.412,1.277-1.551,3.047-1.435,4.863-1.435,1.57,0,3.139,0,4.709.001,3.618,0,7.237.002,10.855.002,18.781.003,37.563.004,56.344.005,21.59,0,43.18,0,64.77.001,5.066,0,10.132,0,15.198,0,3.089,0,3.094-4.8,0-4.8h0Z"></path><path class="g" d="M285.035,209.457H49.576c-3.193,0-6.392-.06-9.584,0-.136.003-.273,0-.409,0-3.089,0-3.094,4.8,0,4.8h215.306c6.717,0,13.435,0,20.152,0,3.193,0,6.392.06,9.584,0,.136-.003.273,0,.409,0,3.089,0,3.094-4.8,0-4.8h0Z"></path><path class="g" d="M40.706,122.853c-.008-21.154-.017-42.308-.025-63.462-.004-10.199-.008-20.397-.012-30.596-.002-4.481-.003-8.963-.005-13.444,0-1.977-.139-3.943.7-5.79.794-1.75,2.237-3.184,3.983-3.982,2.472-1.13,5.576-.704,8.236-.704s5.342-.002,8.013-.002c6.344-.002,12.687-.004,19.031-.006,15.54-.005,31.08-.01,46.621-.015,17.446-.006,34.891-.012,52.337-.018,16.82-.006,33.641-.012,50.461-.017,13.722-.005,27.445-.01,41.167-.014,3.088-.001,6.512-.481,9.26,1.196,1.581.965,2.806,2.506,3.38,4.269.598,1.84.407,3.821.407,5.729,0,8.932,0,17.864.001,26.796.002,20.397.007,40.795.013,61.192.003,9.937.006,19.873.009,29.81.002,4.568.003,9.137.005,13.705,0,2.142.002,4.285.002,6.427,0,.954-.067,1.937.001,2.888.079,1.105.81,1.89,1.427,2.754,10.352,14.509,20.893,28.94,30.351,44.057,1.032,1.649,2.095,3.296,3.037,4.999,1.382,2.5.963,5.439.942,8.193-.015,1.97-.597,3.726-2.389,4.775-1.088.637-2.232.657-3.446.657-3.182,0-6.363,0-9.545,0-9.304,0-18.608,0-27.912,0-12.261,0-24.522,0-36.783,0-14.235,0-28.471,0-42.706,0-15.075,0-30.149,0-45.224,0-14.765,0-29.529,0-44.294,0-13.493,0-26.986,0-40.479,0-11.069,0-22.137,0-33.206,0-7.555,0-15.11,0-22.666,0-1.542,0-3.463.288-4.809-.563-2.374-1.501-1.519-4.456-1.685-6.812-.179-2.549-4.105-3.438-4.714-.638-.123.563-.039,1.101-.104,1.662h4.8c-.206-1.973-.241-4.49.49-6.323,1.123-2.816,3.197-5.491,4.81-8.048,3.728-5.911,7.607-11.726,11.534-17.505,3.887-5.721,7.831-11.402,11.809-17.061,1.674-2.382,3.355-4.76,5.041-7.134.651-.917,1.76-2.042,2.063-3.134.441-1.588.084-3.765.084-5.398-.004-9.48-.008-18.96-.011-28.44-.001-3.089-4.801-3.094-4.8,0,.004,11.067.009,22.134.013,33.201l.328-1.211c-11.301,15.868-22.676,31.792-32.8,48.446-1.566,2.577-3.073,5.029-3.327,8.116-.117,1.424-.183,3.057-.033,4.493.324,3.095,4.446,3.073,4.8,0,.047-.406.207-1.646-.068-.386l-4.714-.638c.242,3.441-.319,6.596,2.202,9.415,2.186,2.444,5.112,2.76,8.164,2.76,3.328,0,6.657,0,9.985,0,9.885,0,19.77,0,29.655,0,13.138,0,26.276,0,39.414,0,15.13,0,30.26,0,45.39,0,15.861,0,31.722,0,47.584,0,15.331,0,30.663,0,45.994,0,13.54,0,27.081,0,40.621,0,10.488,0,20.977,0,31.465,0,3.706,0,7.411,0,11.117,0,2.062,0,4.305.207,6.291-.402,2.248-.69,4.195-2.186,5.436-4.182,1.443-2.32,1.415-4.831,1.437-7.47.027-3.132-.045-5.981-1.61-8.792-1.014-1.822-2.149-3.587-3.258-5.352-2.488-3.963-5.071-7.867-7.69-11.745-5.522-8.177-11.218-16.235-16.947-24.268-2.196-3.079-4.4-6.153-6.593-9.234l.328,1.211c-.007-18.726-.013-37.453-.019-56.179-.006-20.078-.01-40.157-.012-60.235,0-8.739-.001-17.479,0-26.218,0-4.44-1.218-8.525-4.829-11.378C280.95.211,277.306-.001,273.308,0c-13.253.005-26.507.009-39.76.014-16.455.006-32.911.011-49.366.017-17.276.006-34.552.012-51.828.018-15.715.005-31.431.011-47.146.016-11.811.004-23.622.008-35.434.011-4.103.001-7.946,1.155-10.721,4.348-3.116,3.585-3.19,7.698-3.189,12.197.004,9.43.007,18.859.011,28.289.008,21.145.016,42.289.025,63.434.002,4.837.004,9.674.006,14.51.001,3.089,4.801,3.094,4.8,0Z"></path><path class="g" d="M215.199,144.904c-24.423.004-48.845.011-73.268.019-21.901.007-43.801.014-65.702.022-7.96.003-15.92.006-23.881.009l2.4,2.4c-.001-3.251-.003-6.501-.004-9.752-.004-8.261-.007-16.522-.011-24.783-.005-10.887-.009-21.774-.014-32.661-.005-11.286-.01-22.571-.016-33.857-.004-9.273-.009-18.545-.014-27.818,0-.906,0-1.813-.001-2.719l-2.4,2.4c4.545-.001,9.089-.003,13.634-.004,6.866-.002,13.732-.004,20.599-.006,8.55-.003,17.099-.005,25.649-.008,9.595-.003,19.189-.006,28.784-.009,10.002-.003,20.003-.006,30.005-.01,9.771-.003,19.541-.006,29.312-.009,8.901-.003,17.802-.006,26.703-.009,7.394-.002,14.787-.005,22.181-.007,5.248-.002,10.496-.003,15.743-.005,2.45,0,4.945.136,7.392-.002.106-.006.213,0,.319,0l-2.4-2.4c.005,15.992.012,31.983.019,47.975.008,18.464.017,36.928.027,55.392.005,9.408.01,18.816.014,28.223l2.4-2.4h-10.51c-3.089,0-3.094,4.8,0,4.8h10.51c1.297,0,2.401-1.1,2.4-2.4-.009-17.471-.018-34.941-.026-52.412-.009-18.052-.017-36.104-.025-54.156-.003-8.341-.007-16.682-.009-25.022,0-1.297-1.099-2.4-2.4-2.4-1.683,0-3.366.001-5.049.002-4.624.001-9.247.003-13.871.004-6.926.002-13.852.004-20.778.007-8.59.003-17.18.005-25.771.008-9.616.003-19.232.006-28.849.009-10.004.003-20.008.006-30.012.01-9.754.003-19.507.006-29.261.009-8.865.003-17.73.006-26.596.008-7.338.002-14.677.005-22.015.007-5.174.002-10.347.003-15.521.005-.866,0-1.732,0-2.598,0-1.297,0-2.401,1.099-2.4,2.4.005,8.866.009,17.731.014,26.597.005,11.166.01,22.333.015,33.499.005,11.057.01,22.114.015,33.171.004,8.721.008,17.443.011,26.164.002,3.986-.154,8.008.005,11.992.002.056,0,.112,0,.168,0,1.297,1.099,2.401,2.4,2.4,16.808-.006,33.617-.013,50.425-.019,24.049-.008,48.099-.016,72.148-.022,13.426-.004,26.851-.007,40.277-.009,3.089,0,3.094-4.801,0-4.8h0Z"></path><path class="g" d="M88.223,47.17c9.296.013,18.592.011,27.888.01,11.591,0,23.183-.005,34.774-.007,5.333-.001,10.666-.003,15.998-.003,3.089,0,3.094-4.8,0-4.8-10.25,0-20.501.004-30.751.006-11.328.003-22.655.006-33.983.003-4.642-.001-9.284-.003-13.926-.009-3.089-.004-3.093,4.796,0,4.8h0Z"></path><path class="g" d="M88.223,63.76c9.135,0,18.27-.039,27.405-.062,13.266-.033,26.531-.067,39.797-.098,3.819-.009,7.639-.022,11.458-.022,3.089,0,3.094-4.8,0-4.8-9.227,0-18.455.039-27.682.062-13.24.033-26.479.067-39.719.098-3.753.009-7.506.022-11.259.022-3.089,0-3.094,4.8,0,4.8h0Z"></path><path class="g" d="M198.916,54.829c1.736,1.738,3.436,3.51,5.171,5.249.922.924,2.468.909,3.394,0,3.577-3.511,7.128-7.05,10.631-10.635.906-.927.924-2.47,0-3.394-.911-.911-2.485-.93-3.394,0-3.503,3.585-7.054,7.124-10.631,10.635h3.394c-1.735-1.739-3.435-3.511-5.171-5.249-.916-.917-2.478-.916-3.394,0s-.919,2.474,0,3.394h0Z"></path><path class="g" d="M196.009,71.88c6.455.018,12.911.001,19.366-.011,2.912-.006,6.646.613,9.181-1.096,1.928-1.299,2.831-3.396,2.848-5.668.05-7.058,0-14.117,0-21.175,0-1.034.014-2.069,0-3.104-.036-2.607-1.407-4.973-3.843-6.031-1.483-.644-3.057-.551-4.639-.548-1.56.003-3.12.006-4.681.009-3.448.006-6.897.012-10.345.015-1.572.001-3.144.001-4.716,0-1.47-.001-3.021-.144-4.471.136-3.027.586-4.994,3.329-5.085,6.311-.081,2.643,0,5.302,0,7.946v12.313c0,3.029-.495,6.499,1.757,8.909,1.212,1.297,2.885,1.916,4.628,1.995,3.088.14,3.081-4.66,0-4.8-2.236-.102-1.585-3.575-1.585-5.064v-11.057c0-3.062,0-6.124,0-9.186,0-.699-.118-1.525.334-2.103.55-.703,1.364-.604,2.162-.603,1.456.003,2.912.004,4.368.004,5.934,0,11.868-.014,17.802-.025,1.518-.003,3.379-.278,3.514,1.679.054.783,0,1.589,0,2.372,0,6.833,0,13.666,0,20.5,0,.699.116,1.555-.042,2.232-.254,1.085-1.21,1.229-2.163,1.23-1.489.003-2.978.006-4.467.008-6.641.013-13.281.031-19.922.012-3.089-.009-3.093,4.791,0,4.8Z"></path><path class="g" d="M208.409,120.694c-2.527.005-5.055.009-7.582.005-1.078-.001-2.155-.004-3.233-.008-.828-.003-1.875.205-2.569-.34-.879-.69-.606-2.208-.606-3.199v-21.287c0-1.161-.256-2.806,1.237-3.152.668-.155,1.505-.036,2.202-.035,1.023.002,2.046.002,3.069.003,2.091,0,4.181-.001,6.272-.004,4.182-.005,8.363-.014,12.545-.021,1.362-.002,2.729-.037,2.865,1.631.074.912,0,1.862,0,2.776v6.881c0,3.089,4.8,3.094,4.8,0v-6.767c0-3.119.104-6.263-2.856-8.245-1.95-1.306-4.253-1.078-6.486-1.074-2.373.004-4.746.009-7.119.013-4.574.007-9.148.015-13.721.006-2.313-.005-4.473.359-6.051,2.231-1.056,1.252-1.534,2.749-1.557,4.373-.024,1.738,0,3.477,0,5.215v16.776c0,2.532-.138,4.993,1.761,7.022,2.094,2.238,5.014,1.996,7.815,2.003,3.071.008,6.143.004,9.214-.002,3.088-.006,3.094-4.806,0-4.8h0Z"></path><path class="g" d="M88.223,101.281c9.296.013,18.592.011,27.888.01,11.591,0,23.183-.005,34.774-.007,5.333-.001,10.666-.003,15.998-.003,3.089,0,3.094-4.8,0-4.8-10.25,0-20.501.004-30.751.006-11.328.003-22.655.006-33.983.003-4.642-.001-9.284-.003-13.926-.009-3.089-.004-3.093,4.796,0,4.8h0Z"></path><path class="g" d="M88.223,116.871c8.878,0,17.756-.039,26.634-.062,13.368-.033,26.735-.068,40.103-.098,3.974-.009,7.949-.022,11.923-.023,3.089,0,3.094-4.8,0-4.8-9.422,0-18.844.038-28.266.062-13.216.032-26.431.067-39.647.098-3.582.009-7.165.022-10.747.023-3.089,0-3.094,4.8,0,4.8h0Z"></path><path class="g" d="M222.942,163.312c-3.153-9.724-6.344-19.436-9.512-29.155-.841-2.581-1.774-5.152-2.522-7.761-.515-1.797-.438-4.04,1.497-5.029,2.213-1.13,4.663-.317,5.707,1.93.998,2.147,1.54,4.626,2.271,6.876,1.93,5.938,3.86,11.876,5.79,17.814.951,2.925,5.587,1.674,4.629-1.276-1.861-5.728-3.723-11.455-5.584-17.183-.882-2.712-1.59-5.59-2.75-8.199-1.423-3.2-4.651-5.432-8.207-5.269-3.627.166-6.847,2.233-7.993,5.747-.95,2.915-.04,5.721.864,8.499,2.038,6.262,4.082,12.522,6.126,18.782,1.687,5.166,3.38,10.33,5.057,15.5.949,2.926,5.585,1.674,4.629-1.276h0Z"></path><path class="g" d="M230.995,146.793c.436-1.513,1.628-2.74,3.24-2.93,1.57-.185,2.898.564,3.17,2.126.202,1.16,1.557,1.881,2.633,1.719,1.237-.186,1.981-1.135,2.081-2.357.239-2.912,5.875-3.188,6.565-.422.576,2.311,4.023,2.26,4.629,0,.347-1.297,2.008-1.849,3.083-1.432,1.981.768,2.807,2.44,3.382,4.21,1.59,4.894,3.461,9.785,4.688,14.783.229.934.435,1.874.624,2.817.052.26.106.519.153.78.014.081.033.162.046.244-.069-.45.017.278.035.473.187,2.135.175,4.315-.292,6.415-.702,3.155-2.127,5.557-4.326,7.686-.437.423-.893.827-1.36,1.216-.215.179-.435.353-.654.528-.341.273.009-.005.067-.05-.133.103-.268.204-.402.306-1.371,1.04-2.874,1.867-4.419,2.624-4.071,1.995-8.573,3.27-13.097,3.612-3.508.265-6.612.011-9.887-1.294-4.124-1.643-7.543-4.827-10.149-8.359s-4.847-7.329-6.91-11.193c-.724-1.356-1.525-2.728-2.115-4.149-.371-.893-.74-2.032-.314-2.966.401-.879,1.383-1.454,2.262-1.745.438-.145.807-.218,1.186-.239.224-.012.452-.012.676.009.184.014.171.012-.039-.006.138.028.273.066.405.113,2.95.94,4.213-3.692,1.276-4.629-2.345-.748-5.207-.078-7.215,1.253-2.761,1.83-3.96,4.761-3.315,7.994.305,1.53,1.07,2.946,1.769,4.326.741,1.462,1.509,2.911,2.306,4.343,1.232,2.212,2.533,4.388,3.93,6.5,2.771,4.192,5.95,8.109,10.168,10.924,3.813,2.545,8.295,3.857,12.861,3.994,8.963.269,18.572-2.952,25.376-8.819,2.929-2.526,5.143-5.788,6.241-9.511,1.336-4.535.965-9.241-.091-13.778-.746-3.207-1.88-6.317-2.896-9.446-.503-1.549-1.005-3.099-1.508-4.648-.483-1.487-.846-3.11-1.66-4.458-1.501-2.487-4.407-4.761-7.414-4.81-3.194-.052-6.268,2.002-7.098,5.104h4.629c-.92-3.689-4.809-5.661-8.421-5.398-3.975.289-7.24,3.035-7.572,7.096l4.714-.638c-.64-3.669-4.368-5.919-7.93-5.636-3.716.296-6.712,2.883-7.737,6.44-.857,2.974,3.773,4.243,4.629,1.276h0Z"></path></g></g></svg>